TITLE ""
FILE "1Q_j_2301-2313.mp3" MP3
  TRACK 01 AUDIO
    TITLE "1Q_j_2301-2313_01"
    INDEX 01 00:00:00
  TRACK 02 AUDIO
    TITLE "1Q_j_2301-2313_02"
    INDEX 01 00:00:26
  TRACK 03 AUDIO
    TITLE "1Q_j_2301-2313_03"
    INDEX 01 00:02:11
  TRACK 04 AUDIO
    TITLE "1Q_j_2301-2313_04"
    INDEX 01 00:02:58
  TRACK 05 AUDIO
    TITLE "1Q_j_2301-2313_05"
    INDEX 01 00:04:71
  TRACK 06 AUDIO
    TITLE "1Q_j_2301-2313_06"
    INDEX 01 00:05:06
  TRACK 07 AUDIO
    TITLE "1Q_j_2301-2313_07"
    INDEX 01 00:07:65
  TRACK 08 AUDIO
    TITLE "1Q_j_2301-2313_08"
    INDEX 01 00:07:73
  TRACK 09 AUDIO
    TITLE "1Q_j_2301-2313_09"
    INDEX 01 00:14:07
  TRACK 10 AUDIO
    TITLE "1Q_j_2301-2313_10"
    INDEX 01 00:14:54
  TRACK 11 AUDIO
    TITLE "1Q_j_2301-2313_11"
    INDEX 01 00:16:03
  TRACK 12 AUDIO
    TITLE "1Q_j_2301-2313_12"
    INDEX 01 00:16:13
  TRACK 13 AUDIO
    TITLE "1Q_j_2301-2313_13"
    INDEX 01 00:18:26
  TRACK 14 AUDIO
    TITLE "1Q_j_2301-2313_14"
    INDEX 01 00:18:34
  TRACK 15 AUDIO
    TITLE "1Q_j_2301-2313_15"
    INDEX 01 00:25:02
  TRACK 16 AUDIO
    TITLE "1Q_j_2301-2313_16"
    INDEX 01 00:25:49
  TRACK 17 AUDIO
    TITLE "1Q_j_2301-2313_17"
    INDEX 01 00:26:72
  TRACK 18 AUDIO
    TITLE "1Q_j_2301-2313_18"
    INDEX 01 00:27:05
  TRACK 19 AUDIO
    TITLE "1Q_j_2301-2313_19"
    INDEX 01 00:29:30
  TRACK 20 AUDIO
    TITLE "1Q_j_2301-2313_20"
    INDEX 01 00:29:37
  TRACK 21 AUDIO
    TITLE "1Q_j_2301-2313_21"
    INDEX 01 00:35:34
  TRACK 22 AUDIO
    TITLE "1Q_j_2301-2313_22"
    INDEX 01 00:36:06
  TRACK 23 AUDIO
    TITLE "1Q_j_2301-2313_23"
    INDEX 01 00:37:29
  TRACK 24 AUDIO
    TITLE "1Q_j_2301-2313_24"
    INDEX 01 00:37:39
  TRACK 25 AUDIO
    TITLE "1Q_j_2301-2313_25"
    INDEX 01 00:39:69
  TRACK 26 AUDIO
    TITLE "1Q_j_2301-2313_26"
    INDEX 01 00:40:02
  TRACK 27 AUDIO
    TITLE "1Q_j_2301-2313_27"
    INDEX 01 00:46:36
  TRACK 28 AUDIO
    TITLE "1Q_j_2301-2313_28"
    INDEX 01 00:47:06
  TRACK 29 AUDIO
    TITLE "1Q_j_2301-2313_29"
    INDEX 01 00:48:43
  TRACK 30 AUDIO
    TITLE "1Q_j_2301-2313_30"
    INDEX 01 00:48:50
  TRACK 31 AUDIO
    TITLE "1Q_j_2301-2313_31"
    INDEX 01 00:50:67
  TRACK 32 AUDIO
    TITLE "1Q_j_2301-2313_32"
    INDEX 01 00:50:75
  TRACK 33 AUDIO
    TITLE "1Q_j_2301-2313_33"
    INDEX 01 00:55:25
  TRACK 34 AUDIO
    TITLE "1Q_j_2301-2313_34"
    INDEX 01 00:55:72
  TRACK 35 AUDIO
    TITLE "1Q_j_2301-2313_35"
    INDEX 01 00:56:73
  TRACK 36 AUDIO
    TITLE "1Q_j_2301-2313_36"
    INDEX 01 00:57:18
  TRACK 37 AUDIO
    TITLE "1Q_j_2301-2313_37"
    INDEX 01 00:59:40
  TRACK 38 AUDIO
    TITLE "1Q_j_2301-2313_38"
    INDEX 01 00:59:46
  TRACK 39 AUDIO
    TITLE "1Q_j_2301-2313_39"
    INDEX 01 01:05:65
  TRACK 40 AUDIO
    TITLE "1Q_j_2301-2313_40"
    INDEX 01 01:06:35
  TRACK 41 AUDIO
    TITLE "1Q_j_2301-2313_41"
    INDEX 01 01:07:67
  TRACK 42 AUDIO
    TITLE "1Q_j_2301-2313_42"
    INDEX 01 01:07:75
  TRACK 43 AUDIO
    TITLE "1Q_j_2301-2313_43"
    INDEX 01 01:10:31
  TRACK 44 AUDIO
    TITLE "1Q_j_2301-2313_44"
    INDEX 01 01:10:34
  TRACK 45 AUDIO
    TITLE "1Q_j_2301-2313_45"
    INDEX 01 01:17:19
  TRACK 46 AUDIO
    TITLE "1Q_j_2301-2313_46"
    INDEX 01 01:17:64
  TRACK 47 AUDIO
    TITLE "1Q_j_2301-2313_47"
    INDEX 01 01:19:04
  TRACK 48 AUDIO
    TITLE "1Q_j_2301-2313_48"
    INDEX 01 01:19:12
  TRACK 49 AUDIO
    TITLE "1Q_j_2301-2313_49"
    INDEX 01 01:21:32
  TRACK 50 AUDIO
    TITLE "1Q_j_2301-2313_50"
    INDEX 01 01:21:40
  TRACK 51 AUDIO
    TITLE "1Q_j_2301-2313_51"
    INDEX 01 01:26:59
  TRACK 52 AUDIO
    TITLE "1Q_j_2301-2313_52"
    INDEX 01 01:27:31
  TRACK 53 AUDIO
    TITLE "1Q_j_2301-2313_53"
    INDEX 01 01:28:73
  TRACK 54 AUDIO
    TITLE "1Q_j_2301-2313_54"
    INDEX 01 01:29:08
  TRACK 55 AUDIO
    TITLE "1Q_j_2301-2313_55"
    INDEX 01 01:30:59
  TRACK 56 AUDIO
    TITLE "1Q_j_2301-2313_56"
    INDEX 01 01:30:66
  TRACK 57 AUDIO
    TITLE "1Q_j_2301-2313_57"
    INDEX 01 01:36:75
  TRACK 58 AUDIO
    TITLE "1Q_j_2301-2313_58"
    INDEX 01 01:37:45
  TRACK 59 AUDIO
    TITLE "1Q_j_2301-2313_59"
    INDEX 01 01:38:64
  TRACK 60 AUDIO
    TITLE "1Q_j_2301-2313_60"
    INDEX 01 01:39:01
  TRACK 61 AUDIO
    TITLE "1Q_j_2301-2313_61"
    INDEX 01 01:42:64
  TRACK 62 AUDIO
    TITLE "1Q_j_2301-2313_62"
    INDEX 01 01:42:70
  TRACK 63 AUDIO
    TITLE "1Q_j_2301-2313_63"
    INDEX 01 01:49:64
  TRACK 64 AUDIO
    TITLE "1Q_j_2301-2313_64"
    INDEX 01 01:50:34
  TRACK 65 AUDIO
    TITLE "1Q_j_2301-2313_65"
    INDEX 01 01:52:43
  TRACK 66 AUDIO
    TITLE "1Q_j_2301-2313_66"
    INDEX 01 01:52:50
  TRACK 67 AUDIO
    TITLE "1Q_j_2301-2313_67"
    INDEX 01 01:55:35
  TRACK 68 AUDIO
    TITLE "1Q_j_2301-2313_68"
    INDEX 01 01:55:41
  TRACK 69 AUDIO
    TITLE "1Q_j_2301-2313_69"
    INDEX 01 02:00:70
  TRACK 70 AUDIO
    TITLE "1Q_j_2301-2313_70"
    INDEX 01 02:01:38
  TRACK 71 AUDIO
    TITLE "1Q_j_2301-2313_71"
    INDEX 01 02:03:27
  TRACK 72 AUDIO
    TITLE "1Q_j_2301-2313_72"
    INDEX 01 02:03:40
  TRACK 73 AUDIO
    TITLE "1Q_j_2301-2313_73"
    INDEX 01 02:09:10
  TRACK 74 AUDIO
    TITLE "1Q_j_2301-2313_74"
    INDEX 01 02:09:16
  TRACK 75 AUDIO
    TITLE "1Q_j_2301-2313_75"
    INDEX 01 02:15:04
  TRACK 76 AUDIO
    TITLE "1Q_j_2301-2313_76"
    INDEX 01 02:15:52
  TRACK 77 AUDIO
    TITLE "1Q_j_2301-2313_77"
    INDEX 01 02:17:07
  TRACK 78 AUDIO
    TITLE "1Q_j_2301-2313_78"
    INDEX 01 02:17:17
  TRACK 79 AUDIO
    TITLE "1Q_j_2301-2313_79"
    INDEX 01 02:18:50
  TRACK 80 AUDIO
    TITLE "1Q_j_2301-2313_80"
    INDEX 01 02:18:60
  TRACK 81 AUDIO
    TITLE "1Q_j_2301-2313_81"
    INDEX 01 02:22:63
